<svg viewBox="0 0 1923.07 1140.63" xmlns="http://www.w3.org/2000/svg"><g fill="#fff"><path d="m14.4 1096.53 21.42-1080.02.02-1.2h1.2l105.66-.11h1.33v1.33l.56 540.02.16 270.01-.05 270.02-2-2h105.66l-2 2v-1080.18-2h2 143.4 2v2 1080.21l-2-2h128.3l-2 2v-1080.09-2h2 156.6 2v2 1080.02l-2-2h158.49l-2 2v-1080.01-2h2 192.46 2v2 1080.02l-2-2h198.11l-2 2v-1080.02-2h2 233.96 2v2 1080.01l-2-2h245.29l-2 2 .01-540.01.56-540v-1.42h1.43l216.9.22h1.2v1.2l-1.2 1080-1.2-1080 1.2 1.2-216.9.23 1.42-1.43.56 540 .02 540.01v2h-2-245.29-2v-2-1080.01l2 2h-233.96l2-2v1080.02 2h-2-198.11-2v-2-1080.02l2 2h-192.46l2-2v1080.01 2h-2-158.49-2v-2-1080.02l2 2h-156.6l2-2v1080.09 2h-2-128.3-2v-2-1080.21l2 2h-143.4l2-2v1080.18 2h-2-105.66-2v-2l-.05-270.02.16-270.01.56-540.02 1.33 1.34-105.66-.11 1.23-1.2z"/><path d="m0 1096.53 21.42-1080.02.02-1.2h1.2l105.66-.11h1.33v1.33l.56 540.02.16 270.01-.05 270.02-2-2h105.66l-2 2v-1080.18-2h2 143.4 2v2 1080.21l-2-2h128.3l-2 2v-1080.09-2h2 156.6 2v2 1080.02l-2-2h158.49l-2 2v-1080.01-2h2 192.46 2v2 1080.02l-2-2h198.11l-2 2v-1080.02-2h2 233.96 2v2 1080.01l-2-2h245.29l-2 2 .02-540.01.55-540v-1.42h1.43l216.9.22h1.2v1.2l-1.2 1080-1.2-1080 1.2 1.2-216.9.23 1.42-1.43.56 540 .02 540.01v2h-2-245.29-2v-2-1080.01l2 2h-233.96l2-2v1080.02 2h-2-198.11-2v-2-1080.02l2 2h-192.46l2-2v1080.01 2h-2-158.49-2v-2-1080.02l2 2h-156.6l2-2v1080.09 2h-2-128.3-2v-2-1080.21l2 2h-143.4l2-2v1080.18 2h-2-105.66-2v-2l-.05-270.02.16-270.01.56-540.02 1.33 1.34-105.66-.11 1.22-1.2z"/><g transform="translate(771.87 162.85)"><path d="m-770.07-102.63 12.17-11.24 12.24-11.13c4.07-3.73 8.06-7.54 12.3-11.09 2.12-1.77 4.23-3.54 6.41-5.24l3.27-2.56c1.11-.82 2.2-1.67 3.34-2.47l.13.15c-.93 1-1.91 2-2.87 3l-2.95 2.91c-2 2-4 3.82-6 5.7-4.06 3.75-8.35 7.23-12.57 10.79l-12.63 10.72-12.69 10.64z"/><path d="m-770.06 44.38 122.83-90.57c20.48-15.09 40.89-30.27 61.51-45.17s41.27-29.74 62.15-44.28l.12.17c-20.2 15.46-40.66 30.58-61.09 45.73s-41.14 29.93-61.74 44.84l-123.66 89.44z"/><path d="m-770 179.39 252.5-163.48 63.07-40.91 63.22-40.73c42.25-27 84.47-54 126.93-80.69l.11.16c-41.83 27.65-83.91 54.93-125.96 82.26l-63.23 40.72-63.32 40.56-253.27 162.28z"/></g><path d="m1.82 489.26 390.54-237.01 97.63-59.26 97.72-59.11 97.91-58.79 48.96-29.4 49.04-29.24.11.17-48.68 29.85-48.77 29.71-97.54 59.41-97.73 59.1-97.82 58.93-391.27 235.81z"/><path d="m1.82 633.27 557.08-309.02 139.26-77.27 139.35-77.11 139.53-76.79 69.77-38.39 69.85-38.24.1.17-69.51 38.86-69.59 38.72-139.18 77.42-139.36 77.09-139.44 76.94-557.76 307.8z"/><path d="m1.83 777.29 750.62-381.05 375.38-190.39 187.89-94.78 93.95-47.39 94.03-47.24.09.18-93.71 47.87-93.78 47.72-187.57 95.43-375.56 190.03-751.25 379.79z"/><path d="m1.83 918.3 959.71-438.68 479.92-219.21 240.15-109.18 120.07-54.59 120.15-54.43.08.18-119.85 55.08-119.92 54.93-239.85 109.83-480.09 218.84-960.29 437.41z"/><path d="m1.83 1074.31 959.74-389.19 479.93-194.45 240.13-96.8 120.07-48.4 120.13-48.24.08.19-119.87 48.9-119.93 48.74-239.86 97.46-480.08 194.09-960.26 387.89z"/><path d="m391.73 1096.52 764.83-259.29 382.46-129.51 191.38-64.31 95.69-32.16 95.75-31.99.06.19-95.51 32.67-95.58 32.5-191.15 65-382.59 129.12-765.28 257.97z"/><path d="m972.66 1096.44 474.4-134.75 118.6-33.7 118.65-33.53 118.74-33.18 59.37-16.58 59.42-16.42.06.2-59.23 17.1-59.27 16.93-118.55 33.87-118.65 33.51-118.7 33.34-474.78 133.4z"/><path d="m933.07 933.58 108.27-29.74c18.05-5 36.07-10 54.17-14.73s36.24-9.37 54.46-13.66l.06.19c-17.93 5.4-36 10.39-54 15.41s-36.17 9.6-54.28 14.34l-108.63 28.39z" transform="translate(771.87 162.85)"/><path d="m0 1082.13 21.42-1080.02.02-1.2h1.2l105.66-.11h1.33v1.33l.56 540.02.16 270.01-.05 270.01-2-2h105.66l-2 2v-1080.17-2h2 143.4 2v2 1080.21l-2-2h128.3l-2 2v-1080.09-2h2 156.6 2v2 1080.01l-2-2h158.49l-2 2v-1080-2h2 192.46 2v2 1080.02l-2-2h198.11l-2 2v-1080.02-2h2 233.96 2v2 1080l-2-2h245.29l-2 2 .02-540 .55-540v-1.42h1.43l216.9.22h1.2v1.2l-1.2 1080-1.2-1080 1.2 1.2-216.9.23 1.42-1.43.56 540 .02 540v2h-2-245.29-2v-2-1080l2 2h-233.96l2-2v1080.02 2h-2-198.11-2v-2-1080.02l2 2h-192.46l2-2v1080 2h-2-158.49-2v-2-1080.01l2 2h-156.6l2-2v1080.09 2h-2-128.3-2v-2-1080.21l2 2h-143.4l2-2v1080.17 2h-2-105.66-2v-2l-.05-270.01.16-270.01.56-540.02 1.33 1.34-105.66-.11 1.22-1.2z"/><path d="m-770.07-117 12.17-11.24 12.24-11.17c4.07-3.73 8.06-7.54 12.3-11.09 2.12-1.77 4.23-3.54 6.41-5.24l3.27-2.56c1.11-.82 2.2-1.67 3.34-2.47l.13.15c-.93 1-1.91 2-2.87 3l-2.95 2.91c-2 1.95-4 3.82-6 5.7-4.06 3.75-8.35 7.23-12.57 10.79l-12.63 10.72-12.69 10.64z" transform="translate(771.87 162.85)"/><path d="m-770.06 30 122.83-90.57c20.48-15.09 40.89-30.27 61.51-45.17s41.27-29.74 62.15-44.28l.12.17c-20.2 15.46-40.66 30.58-61.09 45.73s-41.14 29.93-61.74 44.84l-123.66 89.42z" transform="translate(771.87 162.85)"/><path d="m-770 165 252.45-163.49 63.12-40.89 63.22-40.73c42.25-27 84.47-54 126.93-80.69l.11.16c-41.84 27.63-83.91 54.91-126 82.21l-63.23 40.72-63.28 40.56-253.27 162.31z" transform="translate(771.87 162.85)"/><path d="m1.82 474.86 390.54-237.01 97.63-59.26 97.72-59.11 97.91-58.79 48.96-29.4 49.04-29.24.11.17-48.68 29.85-48.77 29.71-97.54 59.41-97.73 59.09-97.82 58.94-391.27 235.81z"/><path d="m1.82 618.87 557.08-309.02 139.26-77.27 139.35-77.11 139.53-76.79 69.77-38.39 69.85-38.24.1.17-69.51 38.86-69.59 38.72-139.18 77.42-139.36 77.09-139.44 76.94-557.76 307.8z"/><path d="m1.83 762.89 750.62-381.05 375.38-190.39 187.89-94.78 93.95-47.39 94.03-47.24.09.18-93.71 47.87-93.78 47.72-187.57 95.43-375.56 190.03-751.25 379.79z"/><path d="m1.83 903.9 959.71-438.68 479.92-219.21 240.15-109.18 120.07-54.59 120.15-54.43.08.18-119.85 55.08-119.92 54.93-239.85 109.83-480.09 218.84-960.29 437.41z"/><path d="m1.83 1059.91 959.74-389.19 479.93-194.45 240.13-96.8 120.07-48.4 120.13-48.24.08.19-119.87 48.9-119.93 48.73-239.86 97.47-480.08 194.09-960.26 387.89z"/><path d="m391.73 1082.12 764.83-259.29 382.46-129.51 191.38-64.31 95.69-32.16 95.75-31.99.06.19-95.51 32.67-95.58 32.5-191.15 65-382.59 129.12-765.28 257.97z"/><path d="m771.84 1140.44 574.81-163.95 143.7-41 143.75-40.83 143.85-40.48 71.92-20.23 71.97-20.07.06.2-71.78 20.75-71.82 20.58-143.66 41.17-143.75 40.81-143.8 40.64-575.19 162.6z"/><path d="m933.07 919.18 108.27-29.74c18.05-5 36.07-10 54.17-14.73s36.24-9.37 54.46-13.66l.06.19c-17.93 5.4-36 10.39-54 15.41s-36.17 9.6-54.28 14.34l-108.63 28.39z" transform="translate(771.87 162.85)"/></g></svg>